<mxfile host="app.diagrams.net" modified="2021-08-05T00:58:54.803Z" agent="5.0 (Windows)" etag="RPX9APQswniTlBBAIB-A" version="14.9.4" type="github">
  <diagram id="SoaL3gLZ2YO1JH6Mpvok" name="Page-1">
    <mxGraphModel dx="1422" dy="740" grid="1" gridSize="10" guides="1" tooltips="1" connect="1" arrows="1" fold="1" page="1" pageScale="1" pageWidth="827" pageHeight="1169" math="0" shadow="0">
      <root>
        <mxCell id="0" />
        <mxCell id="1" parent="0" />
        <mxCell id="3pJKEMpyGUiEuK4JpZSY-1" value="Web UI Loader" style="rounded=0;whiteSpace=wrap;html=1;horizontal=0;" parent="1" vertex="1">
          <mxGeometry x="40" y="120" width="80" height="380" as="geometry" />
        </mxCell>
        <mxCell id="3pJKEMpyGUiEuK4JpZSY-5" value="" style="rounded=0;whiteSpace=wrap;html=1;" parent="1" vertex="1">
          <mxGeometry x="640" y="120" width="80" height="390" as="geometry" />
        </mxCell>
        <mxCell id="mTiEajPiZR37RKjkDfnB-1" value="&lt;div&gt;Web UI Loader 架构框图&lt;/div&gt;" style="text;html=1;strokeColor=none;fillColor=none;align=center;verticalAlign=middle;whiteSpace=wrap;rounded=0;" vertex="1" parent="1">
          <mxGeometry x="300" y="50" width="160" height="40" as="geometry" />
        </mxCell>
        <mxCell id="mTiEajPiZR37RKjkDfnB-4" value="系统总线（本地【Spring Container】，远程【注册中心】）" style="rounded=0;whiteSpace=wrap;html=1;" vertex="1" parent="1">
          <mxGeometry x="40" y="520" width="680" height="60" as="geometry" />
        </mxCell>
        <mxCell id="mTiEajPiZR37RKjkDfnB-5" value="" style="swimlane;startSize=0;" vertex="1" parent="1">
          <mxGeometry x="160" y="130" width="170" height="360" as="geometry" />
        </mxCell>
        <mxCell id="3pJKEMpyGUiEuK4JpZSY-2" value="UI " style="rounded=1;whiteSpace=wrap;html=1;" parent="mTiEajPiZR37RKjkDfnB-5" vertex="1">
          <mxGeometry x="26" y="15" width="120" height="60" as="geometry" />
        </mxCell>
        <mxCell id="3pJKEMpyGUiEuK4JpZSY-3" value="业务逻辑" style="rounded=1;whiteSpace=wrap;html=1;" parent="mTiEajPiZR37RKjkDfnB-5" vertex="1">
          <mxGeometry x="26" y="90" width="120" height="60" as="geometry" />
        </mxCell>
        <mxCell id="3pJKEMpyGUiEuK4JpZSY-4" value="数据访问" style="rounded=1;whiteSpace=wrap;html=1;" parent="mTiEajPiZR37RKjkDfnB-5" vertex="1">
          <mxGeometry x="24" y="180" width="120" height="60" as="geometry" />
        </mxCell>
      </root>
    </mxGraphModel>
  </diagram>
</mxfile>
